<?xml version='1.0' encoding='utf-8'?>
<svg xmlns:xlink="http://www.w3.org/1999/xlink" xmlns="http://www.w3.org/2000/svg" viewBox="0 0 48 48"> <defs> <filter id="o"> <feGaussianBlur stdDeviation=".29777"/> </filter> <filter id="n" x="-.23939" y="-.16079" width="1.4788" height="1.3216"> <feGaussianBlur stdDeviation=".26728"/> </filter> <filter id="m" x="-.09287" y="-.171" width="1.1857" height="1.342"> <feGaussianBlur stdDeviation=".26728"/> </filter> <filter id="p" x="-.23379" y="-.84165" width="1.4676" height="2.6833"> <feGaussianBlur stdDeviation="1.75344"/> </filter> <linearGradient id="b"> <stop stop-color="#7ed249" offset="0"/> <stop stop-color="#286325" offset="1"/> </linearGradient> <linearGradient id="a"> <stop stop-color="#9a5723" offset="0"/> <stop stop-color="#db9762" offset="1"/> </linearGradient> <linearGradient id="c"> <stop stop-color="#a20000" offset="0"/> <stop stop-color="#d40000" offset="1"/> </linearGradient> <linearGradient id="l" x1="34.008" x2="28.644" y1="13.107" y2=".47564" gradientUnits="userSpaceOnUse" xlink:href="#a"/> <linearGradient id="k" x1="20" x2="28" y1="4.7825" y2="12.408" gradientUnits="userSpaceOnUse" xlink:href="#a"/> <linearGradient id="j" x1="10.611" x2="41.444" y1="16.084" y2="19.097" gradientUnits="userSpaceOnUse" xlink:href="#a"/> <linearGradient id="i" x1="39.967" x2="13.732" y1="13.133" y2="22.72" gradientUnits="userSpaceOnUse" xlink:href="#b"/> <linearGradient id="h" x1="20.062" x2="28" y1="12.842" y2="15.487" gradientUnits="userSpaceOnUse" xlink:href="#c"/> <linearGradient id="g" x1="10.488" x2="26.864" y1="17.527" y2="30.264" gradientUnits="userSpaceOnUse" xlink:href="#c"/> <linearGradient id="f" x1="28.683" x2="19.586" y1="12.978" y2="18.437" gradientUnits="userSpaceOnUse" xlink:href="#b"/> <linearGradient id="e" x1="25.954" x2="21.405" y1="12.068" y2="8.4295" gradientUnits="userSpaceOnUse" xlink:href="#b"/> <radialGradient id="d" cx="16.589" cy="8.88" r="16" gradientTransform="matrix(1.8855 .41055 -.13845 .63579 -13.461 .59603)" gradientUnits="userSpaceOnUse" xlink:href="#a"/> </defs> <path transform="matrix(.39006 0 0 .51053 15.199 20.332)" d="m38 43.5a9 2.5 0 1 1-18 0 9 2.5 0 1 1 18 0z" fill-opacity=".76863" fill-rule="evenodd" filter="url(#p)"/> <path d="m15.947 22.076c0-0.77596-2.4168-4.8368-1.6857-7.7864 0.77596-3.1306 5.3247-1.3111 8.054-1.3111 3.4669 0 5.4585-2.7292 9.0172 1.3111 2.1147 2.4009-2.2907 13.505-2.2618 15.958 0.06614 5.6121-0.25263 7.1221-0.25263 8.674s-0.58947 4.0782-0.58947 4.0782-3.8798-0.77596-4.6558-3.8798-4.8966-11.586-7.6258-17.044z" fill="url(#g)"/> <path d="m21.405 14.798 1.8195 2.7292 0.90975-2.7292h3.639l-2.7292-1.8195h-6.3682l-2.7292 1.8195 2.7292 0.90975v2.7292l2.7292-3.639z" fill="url(#f)"/> <path transform="matrix(.90975 0 0 .90975 .48079 3.8808)" d="m18 21 7 15s-7.7e-4 2.0008 1 3-3.1135-12.705-8-18z" fill="#fff" fill-opacity=".76339" filter="url(#o)"/> <path d="m20.476 13.227c0.22314-2.738 1.0189-5.3941 5.4776-7.527l1.8195 0.90975c-2.1226 2.4242-3.8316 0.92005-6.3682 7.278l-0.9289-0.66077z" fill="url(#e)"/> <g transform="matrix(.71275 -.4693 .4693 .71275 -7.3959 15.377)"> <path d="m41 16.442c0 2.2091-11 1-17 1s-15 1.2091-15-1c0-0.6881-0.76342-2.1674 0-3 1-2 6.7377-5 15-5 7.1022 0 17 3 17 6-0.37217 0.14887-0.13104 1.4524 0 2z" fill="url(#l)" fill-rule="evenodd"/> <path d="m41 16.442c0 2.2091-11 2-17 2s-15 0.20914-15-2 3-6 15-6c10 0 17 3.7909 17 6z" fill="url(#d)" fill-rule="evenodd"/> <path d="m20 13.442s0-6 2-8 5 1 5 3 1 6 1 6-1.7474 2.9158-8-1z" fill="url(#k)"/> <path d="m40.94 16.799c0 2.2091-10.94 2.2977-16.94 2.2977s-15-0.44587-15-2.655c0-0.6881-0.82297-1.8101-0.05955-2.6427 0.28545 2.0718 6.7973 2.6427 15.06 2.6427 7.1022 0 15.536 0.67956 17-2 0 0 0.46409 0.345-0.05955 2.3573z" fill="url(#j)" fill-rule="evenodd"/> <path d="m41,14.4375c-.13426.24572-.18025.33759-.42533.52993l-.69967,2.15757-1-1.3125c-.32401.09887-.65409.20788-1.03125.28125l-1.03125,2.1875-1.40625-1.90625c-.39211.02933-.77124.07591-1.1875.09375l-1.59375,2.125c-.38238-.56682-.87038-1.54349-1.3125-2.0625-.5026,6.7e-005-1.01675-.02585-1.53125-.03125-.04007.04449-.0847.07278-.125.125-.43769.55441-.67968,1.53304-1.0625,2.125l-1.625-2.28125c-.54628-.0082-1.0844-.02613-1.625-.03125l-2.15625,2.375-1.5-2.40625c-.34611-.0052-.69393.0078-1.03125,0-.74324.67248-1.49108,1.64086-2.25,2.21875-.262-.27237-.51177-1.08262-.75-1.375-.38796-.50553-.61956-.84614-.75-1.03125-.40928-.02743-.83389-.02846-1.21875-.0625h-.03125c-.70591.61638-1.41104,1.41734-2.09375,1.96875-.66196-.69132-1.21578-1.72376-1.78125-2.5625-.41824-.10037-.7919-.19071-1.125-.3125l-1.59375,1.46875c.07957.22239.26927.40941.53125.59375l1.4375-1.46875c.43296.95179 1.09412,1.73044 1.78125,2.5 .44417.08025.88288.18552 1.375.25 .01218-.01756-.0037.0033.03125-.03125 .06979-.06911.15975-.14585.28125-.25 .54339-.48539 1.22796-1.37951 1.8125-1.8125 .41022.63082.80502,1.67024 1.28125,2.25 .05878.06514.12637.10276.1875.15625 .37713.0234.7449.0756 1.125.09375 .76671-.65448 1.50753-1.65603 2.25-2.25l1.5,2.3125c.41877.0046.85327.03096 1.25.03125l2.375-2.3125 1.53125,2.28125c.48235-.0067.87951.01135 1.375,0 .4451-.77779.94738-1.79607 1.375-2.4375 .38045.80452.86534,1.571 1.40625,2.3125h.03125l1.21875-.0625 1.65625-2.1875 1.40625,1.90625c.36805-.04534.75712-.07086 1.09375-.125l1.09375-2.09375 1.28125,1.5c.40574-.15687.70438-.33128.90625-.53125l.46875-1.4375c.18116-1.2059-.125-1.46875-.125-1.46875z" fill="url(#i)"/> <path d="m20.54307,10.19807-.23057.15182c-.14022.88045-.20998,1.19278-.25,1.83761l.15625,1.375c.38173.23311.74589.44138 1.09375.625l.59375-1.46875 .3125,1.90625c.40069.17947.77376.35266 1.125.46875l.8125-2.25 .65625,2.59375c.42398.05513.79746.06137 1.125.03125l.46875-2.9375 1.46875,2 .03125.03125c.05999-.07208.09375-.125.09375-.125s-.21432-.95539-.4375-2.03125l-1.0625-1.40625-.875.21875-.34375,2.0625-.5625-2.25-.9375-.0625-.78125,2.125-.375-2.28125-.96875-.09375-.59375,1.4375-.21875-1.875-.30068-.08318z" fill="url(#h)"/> <path d="m20.901 9.057c0.74113-1.2864 0.92918-2.4148 2.6796-3.9896-0.90367 0-2.525 0.83364-2.6796 3.9896z" fill="#fff" fill-opacity=".78125" filter="url(#n)"/> <path d="m10.242 15.25c1.3723-1.3667 3.0306-2.6977 6.9073-3.7514 0 0-6.55 0.7741-6.9073 3.7514z" fill="#fff" fill-opacity=".78125" filter="url(#m)"/> </g> </svg>